<svg xmlns="http://www.w3.org/2000/svg"  viewBox="0 0 100 100" width="100px" height="100px"><path fill="#c7ede6" d="M86.715,56.71c1.135-2.155,1.785-4.605,1.785-7.21c0-6.621-4.159-12.257-10.001-14.478	c0-0.007,0.001-0.014,0.001-0.022c0-11.598-9.402-21-21-21c-9.784,0-17.981,6.701-20.313,15.757C35.711,29.272,34.138,29,32.5,29	c-7.692,0-14.023,5.793-14.89,13.252C12.406,43.353,8.5,47.969,8.5,53.5C8.5,59.851,13.649,65,20,65	c0.177,0,0.352-0.012,0.526-0.022C20.522,65.153,20.5,65.324,20.5,65.5C20.5,76.822,29.678,86,41,86	c6.437,0,12.175-2.972,15.934-7.614C59.112,80.611,62.14,82,65.5,82c4.65,0,8.674-2.65,10.666-6.518	C77.218,75.817,78.337,76,79.5,76c6.075,0,11-4.925,11-11C90.5,61.689,89.03,58.727,86.715,56.71z"/><path fill="#fdfcef" d="M69.625,53.5c0,0-3.64,0-6.125,0S59,51.485,59,49c0-2.333,1.782-4.229,4.055-4.455 C63.033,44.364,63,44.187,63,44c0-2.485,2.015-4.5,4.5-4.5c1.438,0,2.703,0.686,3.527,1.736C71.167,38.6,73.329,36.5,76,36.5 c2.761,0,5,2.239,5,5c0,0.446-0.077,0.87-0.187,1.282c0.642-0.777,1.6-1.282,2.687-1.282c1.781,0,3.234,1.335,3.455,3.055 c0.181-0.022,0.358-0.055,0.545-0.055c2.485,0,4.5,2.015,4.5,4.5s-2.015,4.5-4.5,4.5s-9.5,0-9.5,0h-5.375V54h-3V53.5z"/><path fill="#472b29" d="M76,36c3.033,0,5.5,2.467,5.5,5.5c0,0.016,0,0.031,0,0.047c0.602-0.355,1.29-0.547,2-0.547 c1.831,0,3.411,1.261,3.858,3.005C87.405,44.002,87.452,44,87.5,44c2.757,0,5,2.243,5,5s-2.243,5-5,5H72.625 c-0.276,0-0.5-0.224-0.5-0.5s0.224-0.5,0.5-0.5H87.5c2.206,0,4-1.794,4-4s-1.794-4-4-4c-0.117,0-0.23,0.017-0.343,0.032 l-0.141,0.019c-0.021,0.003-0.041,0.004-0.062,0.004c-0.246,0-0.462-0.185-0.495-0.437C86.268,43.125,84.996,42,83.5,42 c-0.885,0-1.723,0.401-2.301,1.1c-0.098,0.118-0.241,0.182-0.386,0.182c-0.078,0-0.156-0.018-0.228-0.056 c-0.209-0.107-0.314-0.346-0.254-0.573c0.115-0.435,0.169-0.801,0.169-1.153c0-2.481-2.019-4.5-4.5-4.5 c-2.381,0-4.347,1.872-4.474,4.263c-0.011,0.208-0.15,0.387-0.349,0.45c-0.05,0.016-0.101,0.024-0.152,0.024 c-0.15,0-0.296-0.069-0.392-0.192C69.862,40.563,68.721,40,67.5,40c-2.206,0-4,1.794-4,4c0,0.117,0.017,0.23,0.032,0.343 l0.019,0.141c0.016,0.134-0.022,0.268-0.106,0.373c-0.084,0.105-0.207,0.172-0.34,0.185C61.049,45.247,59.5,46.949,59.5,49 c0,2.206,1.794,4,4,4h6.125c0.276,0,0.5,0.224,0.5,0.5s-0.224,0.5-0.5,0.5H63.5c-2.757,0-5-2.243-5-5 c0-2.397,1.689-4.413,4.003-4.877C62.501,44.082,62.5,44.041,62.5,44c0-2.757,2.243-5,5-5c1.176,0,2.293,0.416,3.183,1.164 C71.281,37.76,73.445,36,76,36L76,36z"/><path fill="#472b29" d="M77.5,43c1.403,0,2.609,0.999,2.913,2.341C80.78,45.119,81.199,45,81.625,45 c1.202,0,2.198,0.897,2.353,2.068C84.181,47.022,84.374,47,84.563,47c1.529,0,2.811,1.2,2.918,2.732 C87.49,49.87,87.386,49.99,87.249,50c-0.006,0-0.012,0-0.018,0c-0.13,0-0.24-0.101-0.249-0.232 c-0.089-1.271-1.151-2.268-2.419-2.268c-0.229,0-0.47,0.042-0.738,0.127c-0.022,0.007-0.045,0.01-0.067,0.01 c-0.055,0-0.11-0.02-0.156-0.054c-0.064-0.046-0.102-0.128-0.102-0.208c0-1.034-0.841-1.875-1.875-1.875 c-0.447,0-0.885,0.168-1.231,0.473c-0.047,0.041-0.106,0.063-0.165,0.063c-0.032,0-0.063-0.006-0.093-0.019 c-0.088-0.035-0.148-0.117-0.155-0.212C79.877,44.512,78.788,43.5,77.5,43.5c-0.208,0-0.425,0.034-0.682,0.107 c-0.023,0.007-0.047,0.01-0.07,0.01c-0.109,0-0.207-0.073-0.239-0.182c-0.038-0.133,0.039-0.271,0.172-0.309 C76.983,43.04,77.244,43,77.5,43L77.5,43z"/><path fill="#472b29" d="M63.617,44.5c1.326,0,2.508,0.897,2.874,2.182c0.038,0.133-0.039,0.271-0.172,0.309 C66.295,46.997,66.272,47,66.25,47c-0.109,0-0.209-0.072-0.24-0.182C65.705,45.748,64.721,45,63.617,45 c-0.117,0-0.23,0.014-0.342,0.029c-0.012,0.002-0.023,0.003-0.035,0.003c-0.121,0-0.229-0.092-0.246-0.217 c-0.019-0.137,0.077-0.263,0.214-0.281C63.342,44.516,63.478,44.5,63.617,44.5L63.617,44.5z"/><path fill="#fff" d="M14.905,51H5c-0.276,0-0.5-0.224-0.5-0.5S4.724,50,5,50h9.905c0.276,0,0.5,0.224,0.5,0.5	S15.182,51,14.905,51z"/><path fill="#fff" d="M18,51h-1c-0.276,0-0.5-0.224-0.5-0.5S16.724,50,17,50h1c0.276,0,0.5,0.224,0.5,0.5S18.277,51,18,51z"/><path fill="#fff" d="M22.991,53H14c-0.276,0-0.5-0.224-0.5-0.5S13.724,52,14,52h8.991c0.276,0,0.5,0.224,0.5,0.5	S23.267,53,22.991,53z"/><path fill="#fff" d="M12,53h-1c-0.276,0-0.5-0.224-0.5-0.5S10.724,52,11,52h1c0.276,0,0.5,0.224,0.5,0.5S12.277,53,12,53z"/><path fill="#fff" d="M9,53H7c-0.276,0-0.5-0.224-0.5-0.5S6.724,52,7,52h2c0.276,0,0.5,0.224,0.5,0.5S9.277,53,9,53z"/><path fill="#fff" d="M15,55h-2c-0.276,0-0.5-0.224-0.5-0.5S12.724,54,13,54h2c0.276,0,0.5,0.224,0.5,0.5S15.276,55,15,55z"/><path fill="#fff" d="M18,46c-0.177,0-0.823,0-1,0c-0.276,0-0.5,0.224-0.5,0.5S16.724,47,17,47c0.177,0,0.823,0,1,0	c0.276,0,0.5-0.224,0.5-0.5S18.276,46,18,46z"/><path fill="#fff" d="M18,48c-0.177,0-4.823,0-5,0c-0.276,0-0.5,0.224-0.5,0.5S12.724,49,13,49c0.177,0,4.823,0,5,0	c0.276,0,0.5-0.224,0.5-0.5S18.276,48,18,48z"/><path fill="#fff" d="M23,50c-0.177,0-2.823,0-3,0c-0.276,0-0.5,0.224-0.5,0.5S19.724,51,20,51c0.177,0,2.823,0,3,0	c0.276,0,0.5-0.224,0.5-0.5S23.276,50,23,50z"/><path fill="#fff" d="M88,69H78c-0.276,0-0.5-0.224-0.5-0.5S77.724,68,78,68h10c0.276,0,0.5,0.224,0.5,0.5S88.276,69,88,69	z"/><path fill="#fff" d="M92,69h-2c-0.276,0-0.5-0.224-0.5-0.5S89.724,68,90,68h2c0.276,0,0.5,0.224,0.5,0.5S92.276,69,92,69z"/><path fill="#fff" d="M97,71H87c-0.276,0-0.5-0.224-0.5-0.5S86.724,70,87,70h10c0.276,0,0.5,0.224,0.5,0.5S97.277,71,97,71	z"/><path fill="#fff" d="M85,71h-1c-0.276,0-0.5-0.224-0.5-0.5S83.724,70,84,70h1c0.276,0,0.5,0.224,0.5,0.5S85.276,71,85,71z"/><path fill="#fff" d="M81.875,71H80c-0.276,0-0.5-0.224-0.5-0.5S79.724,70,80,70h1.875c0.276,0,0.5,0.224,0.5,0.5	S82.151,71,81.875,71z"/><path fill="#fff" d="M91,67h-5c-0.276,0-0.5-0.224-0.5-0.5S85.724,66,86,66h5c0.276,0,0.5,0.224,0.5,0.5S91.277,67,91,67z"/><path fill="#fff" d="M88,73h-2c-0.276,0-0.5-0.224-0.5-0.5S85.724,72,86,72h2c0.276,0,0.5,0.224,0.5,0.5S88.276,73,88,73z"/><polygon fill="#96ba45" points="30.729,38.115 50.104,29.183 52.822,29.183 72.025,37.986 72.241,38.719 51.614,47.188 30.47,38.59"/><polygon fill="#eba272" points="67.627,44.886 66.027,45.553 66.07,47.877 67.78,47.277"/><path fill="#d8a482" d="M72.552,56.751l0.125,5.41c0.079,3.424,0.883,4.261-0.757,4.952l-10.745,5.135l-1.769,0.906	l-7.897,3.279l0.043-0.734c0-1.28,0.268-2.259,0.288-4.227v-1.28v-5.121l-0.204-11.336l0.216-4.79l6.103-2.472l0.001,2.303	l1.641-0.657l1.632-0.654l4.839-1.939l0.03,2.276l4.774-1.932l1.239-0.464l0.282,4.422l0.106,4.598L72.552,56.751z"/><path fill="#96ba45" d="M68.069,40.44c2.256-0.887,4.82-3.539,4.894-0.331l-0.506,5.126l-1.585,0.636l-3.227,1.327v-2.201	l-1.575,0.539l0.027,2.266l-1.61,0.651l-3.245-0.992l-1.646,0.658l-1.641,0.657l-1.65,0.661l-1.66,0.665l-1.67,0.669l-1.346,0.539	c0.537-2.763-0.481-4.668,1.491-5.443l6.464-2.095l1.62-0.637L68.069,40.44z"/><polygon fill="#bb7a54" points="66.106,47.84 69.316,46.541 70.907,45.897 72.49,45.256 72.537,47.522 70.949,48.171 69.352,48.824 69.283,48.852 69.317,51.005 67.687,51.678 67.658,49.516 66.13,50.141"/><polygon fill="#bb7a54" points="55.562,55.118 53.9,55.798 53.894,58.162 55.563,57.473"/><polygon fill="#bb7a54" points="58.32,48.633 56.701,49.28 56.696,51.592 58.363,50.845"/><polygon fill="#bb7a54" points="62.85,46.817 62.832,44.54 64.439,43.903 64.463,46.171 64.488,48.455 62.869,49.11 61.329,49.718 61.262,47.458"/><polygon fill="#bb7a54" points="61.338,49.704 59.715,50.412 59.707,52.695 61.351,52.023"/><polygon fill="#eba272" points="61.241,45.152 59.603,45.814 59.61,48.143 61.253,47.471"/><polygon fill="#bb7a54" points="53.489,50.549 51.852,51.212 51.858,53.54 53.502,52.868"/><polygon fill="#bb7a54" points="67.693,51.659 66.052,52.316 66.053,54.637 67.7,53.97"/><polygon fill="#bb7a54" points="53.483,48.238 55.152,47.569 56.812,46.904 56.807,49.233 51.78,51.268 51.804,48.911"/><polygon fill="#bb7a54" points="72.054,54.857 70.458,55.529 70.506,57.861 72.108,57.18"/><polygon fill="#bb7a54" points="70.41,53.214 68.811,53.881 68.853,56.205 70.458,55.529"/><polygon fill="#78a0cf" points="69.64,60.829 68.014,61.528 68.052,63.913 69.683,63.205"/><polygon fill="#bb7a54" points="55.359,69.248 57.004,68.541 57.036,70.936 55.385,71.652 53.724,72.373 53.705,69.959"/><polygon fill="#bb7a54" points="67.977,59.16 66.348,59.853 66.379,62.23 68.014,61.528"/><polygon fill="#bb7a54" points="57.264,56.784 58.943,56.091 58.937,58.472 57.253,59.175 55.558,59.882 55.576,57.481"/><polygon fill="#78a0cf" points="63.104,51.29 61.429,51.989 61.424,54.388 63.105,53.68"/><polygon fill="#bb7a54" points="58.588,65.541 56.942,66.227 56.955,68.598 58.607,67.902"/><polygon fill="#bb7a54" points="55.221,62.054 53.553,62.764 53.56,65.179 55.234,64.46"/><polygon fill="#bb7a54" points="60.595,57.727 58.929,58.421 58.93,60.811 60.601,60.107"/><polygon fill="#bb7a54" points="53.56,65.179 51.876,65.903 51.877,68.346 53.567,67.613"/><polygon fill="#bb7a54" points="64.706,65.352 64.724,62.915 66.425,62.199 66.413,64.626 66.401,67.071 64.687,67.808 62.963,68.548 62.988,66.083"/><polygon fill="#bb7a54" points="61.325,69.164 62.963,68.446 63.007,70.858 61.364,71.585 59.71,72.317 59.678,69.886"/><polygon fill="#d1dc82" points="70.469,41.324 68.892,41.956 68.933,44.214 70.516,43.573"/><polygon fill="#d1dc82" points="66.017,43.284 64.436,43.911 64.472,46.162 66.057,45.527"/><path fill="#d8a482" d="M30.571,56.751l-0.125,5.41c-0.079,3.424-0.883,4.261,0.757,4.952l10.745,5.135l1.769,0.906	l7.897,3.279L51.571,75.7c0-1.28-0.268-2.259-0.288-4.227v-1.28v-5.121l0.399-11.337l-1.517-0.614l-1.676-0.678l-1.666-0.674	l-0.011-4.642l-1.644-0.652l-0.001,2.303l-1.641-0.657l-1.632-0.654l-4.839-1.939l-0.03,2.276l-4.774-1.932l-0.095,4.548	l-1.427-0.589l-0.106,4.598L30.571,56.751z"/><path fill="#96ba45" d="M35.055,40.44c-2.256-0.887-4.82-3.539-4.894-0.331l0.57,9.721l1.427,0.589l0.047-2.282l0.047-2.266	l3.174,1.284l1.6,0.648l1.61,0.651l3.247,1.314l1.637,0.663l0.007-2.311l1.641,0.657l1.65,0.661l1.66,0.665l1.67,0.669l1.346,0.539	c-0.537-2.763,0.481-4.668-1.491-5.443l-6.464-2.095l-1.62-0.637L35.055,40.44z"/><polygon fill="#bb7a54" points="38.636,48.455 35.426,47.156 33.834,46.512 32.252,45.871 32.205,48.137 32.157,50.419 33.751,51.077 33.793,48.786 35.39,49.439 35.458,49.467 35.425,51.62 37.055,52.293 37.083,50.131 38.611,50.756"/><polygon fill="#bb7a54" points="45.167,53.436 46.829,54.115 46.834,56.479 45.166,55.79"/><polygon fill="#bb7a54" points="45.169,46.474 46.813,47.127 46.818,49.439 45.168,48.778"/><polygon fill="#bb7a54" points="40.273,46.817 40.292,44.54 38.684,43.903 38.66,46.171 38.636,48.455 40.255,49.11 41.883,49.769 41.895,47.467"/><polygon fill="#bb7a54" points="41.883,49.769 43.52,50.432 43.514,52.76 41.87,52.088"/><polygon fill="#bb7a54" points="43.527,48.12 45.168,48.778 45.167,51.098 43.52,50.432"/><polygon fill="#bb7a54" points="50.148,50.773 48.478,50.104 46.818,49.439 46.824,51.769 48.49,52.443 48.501,54.799 50.183,55.486 50.165,53.121 51.851,53.803 51.827,51.446"/><polygon fill="#bb7a54" points="31.039,54.529 32.635,55.201 32.586,57.533 30.985,56.852"/><polygon fill="#bb7a54" points="32.683,52.886 34.282,53.553 34.24,55.877 32.635,55.201"/><polygon fill="#78a0cf" points="33.581,60.408 35.207,61.107 35.169,63.492 33.537,62.784"/><polygon fill="#bb7a54" points="38.487,62.516 36.842,61.81 36.81,64.205 38.461,64.921 40.122,65.641 40.141,63.227"/><polygon fill="#bb7a54" points="35.244,58.739 36.873,59.432 36.842,61.81 35.207,61.107"/><polygon fill="#bb7a54" points="48.513,57.172 46.834,56.479 46.84,58.861 48.525,59.563 50.219,60.27 50.201,57.869"/><polygon fill="#78a0cf" points="45.165,58.162 46.84,58.861 46.845,61.26 45.164,60.552"/><polygon fill="#bb7a54" points="40.199,56.091 41.844,56.777 41.831,59.148 40.179,58.452"/><polygon fill="#bb7a54" points="41.818,61.536 43.486,62.246 43.479,64.661 41.805,63.942"/><polygon fill="#bb7a54" points="43.5,57.468 45.165,58.162 45.164,60.552 43.493,59.848"/><polygon fill="#bb7a54" points="43.479,64.661 45.163,65.385 45.162,67.829 43.472,67.095"/><polygon fill="#bb7a54" points="49.616,65.126 49.597,62.689 47.896,61.972 47.908,64.399 47.92,66.845 49.634,67.581 49.653,70.055 51.384,70.806 51.358,68.322 51.333,65.856"/><polygon fill="#b07454" points="35.131,66.025 33.494,65.307 33.45,67.718 35.093,68.446 36.746,69.177 36.778,66.747"/><polygon fill="#d1dc82" points="32.299,43.622 33.876,44.254 33.834,46.512 32.252,45.871"/><polygon fill="#d1dc82" points="33.917,42.012 35.497,42.638 35.461,44.889 33.876,44.254"/><path fill="none" stroke="#472b29" stroke-linejoin="round" stroke-miterlimit="10" stroke-width="1.4" d="M53.153,29.344	l18.032,8.197c0.914,0.415,1.501,1.327,1.501,2.331v25.506c0,1.004-0.587,1.915-1.501,2.331l-18.032,8.197	c-1.01,0.459-2.169,0.459-3.178,0l-18.032-8.197c-0.914-0.415-1.501-1.327-1.501-2.331V39.872c0-1.004,0.587-1.915,1.501-2.331	l18.032-8.197C50.984,28.885,52.143,28.885,53.153,29.344z"/><line x1="51.564" x2="51.564" y1="47.2" y2="76.004" fill="none" stroke="#472b29" stroke-linejoin="round" stroke-miterlimit="10"/><polyline fill="none" stroke="#472b29" stroke-linejoin="round" stroke-miterlimit="10" points="31.081,38.863 51.564,47.184 72.046,38.863"/><polyline fill="none" stroke="#472b29" stroke-linecap="round" stroke-linejoin="round" stroke-miterlimit="10" stroke-width=".5" points="35.519,42.581 35.476,44.933 33.901,44.264 33.836,46.486"/><polyline fill="none" stroke="#472b29" stroke-linecap="round" stroke-linejoin="round" stroke-miterlimit="10" stroke-width=".5" points="30.664,49.723 32.477,50.413 32.477,46.033 37.18,47.786"/><polyline fill="none" stroke="#472b29" stroke-linecap="round" stroke-linejoin="round" stroke-miterlimit="10" stroke-width=".5" points="38.604,46.228 38.669,43.79 40.244,44.372 40.222,46.745 41.905,47.35 41.819,49.766 43.61,50.435 43.674,48.062 45.077,48.579 45.142,46.4 46.803,47.026 46.738,49.356 49.996,50.629"/><line x1="38.604" x2="38.588" y1="47.366" y2="48.337" fill="none" stroke="#472b29" stroke-linecap="round" stroke-linejoin="round" stroke-miterlimit="10" stroke-width=".5"/><polyline fill="none" stroke="#472b29" stroke-linecap="round" stroke-linejoin="round" stroke-miterlimit="10" stroke-width=".5" points="32.374,50.382 33.836,50.931 33.879,48.86 35.411,49.442 35.368,51.621 37.029,52.269 37.137,50.068 38.496,50.629"/><polyline fill="none" stroke="#472b29" stroke-linecap="round" stroke-linejoin="round" stroke-miterlimit="10" stroke-width=".5" points="41.84,52.118 43.58,52.722 43.612,50.246"/><polyline fill="none" stroke="#472b29" stroke-linecap="round" stroke-linejoin="round" stroke-miterlimit="10" stroke-width=".5" points="46.738,49.356 46.695,51.643 48.399,52.42 48.335,54.728 50.147,55.484 50.19,53.132 51.549,53.563 53.502,52.868 53.489,50.549 56.701,49.28 56.696,51.592 58.363,50.845 58.32,48.633"/><polyline fill="none" stroke="#472b29" stroke-linecap="round" stroke-linejoin="round" stroke-miterlimit="10" stroke-width=".5" points="30.492,54.362 32.434,55.095 32.52,52.916 33.685,53.391"/><polyline fill="none" stroke="#472b29" stroke-linecap="round" stroke-linejoin="round" stroke-miterlimit="10" stroke-width=".5" points="40.158,58.418 41.792,59.114 41.84,56.767"/><polyline fill="none" stroke="#472b29" stroke-linecap="round" stroke-linejoin="round" stroke-miterlimit="10" stroke-width=".5" points="45.174,53.45 45.174,55.78 46.824,56.492 46.808,54.081"/><polyline fill="none" stroke="#472b29" stroke-linecap="round" stroke-linejoin="round" stroke-miterlimit="10" stroke-width=".5" points="50.201,57.889 50.201,60.241 49.414,59.928"/><polyline fill="none" stroke="#472b29" stroke-linecap="round" stroke-linejoin="round" stroke-miterlimit="10" stroke-width=".5" points="45.163,60.521 45.163,58.18 46.646,58.798"/><line x1="47.698" x2="48.337" y1="59.227" y2="59.478" fill="none" stroke="#472b29" stroke-linecap="round" stroke-linejoin="round" stroke-miterlimit="10" stroke-width=".5"/><polyline fill="none" stroke="#472b29" stroke-linecap="round" stroke-linejoin="round" stroke-miterlimit="10" stroke-width=".5" points="33.523,62.776 35.163,63.477 35.206,61.115 36.846,61.805 36.867,59.453 35.249,58.763"/><polyline fill="none" stroke="#472b29" stroke-linecap="round" stroke-linejoin="round" stroke-miterlimit="10" stroke-width=".5" points="36.813,64.2 40.125,65.646 40.125,63.208"/><polyline fill="none" stroke="#472b29" stroke-linecap="round" stroke-linejoin="round" stroke-miterlimit="10" stroke-width=".5" points="41.808,63.93 43.48,64.653 43.48,67.08"/><polyline fill="none" stroke="#472b29" stroke-linecap="round" stroke-linejoin="round" stroke-miterlimit="10" stroke-width=".5" points="47.909,61.978 47.925,66.848 49.624,67.593 49.672,70.052"/><polyline fill="none" stroke="#472b29" stroke-linecap="round" stroke-linejoin="round" stroke-miterlimit="10" stroke-width=".5" points="33.442,67.787 33.491,65.311 35.157,66.039"/><line x1="36.151" x2="36.759" y1="66.465" y2="66.751" fill="none" stroke="#472b29" stroke-linecap="round" stroke-linejoin="round" stroke-miterlimit="10" stroke-width=".5"/><line x1="36.773" x2="36.767" y1="67.847" y2="68.457" fill="none" stroke="#472b29" stroke-linecap="round" stroke-linejoin="round" stroke-miterlimit="10" stroke-width=".5"/><path fill="#d1dc82" d="M37.277,39.075L35.66,38.45l1.617-0.626l1.617,0.626L37.277,39.075z"/><path fill="#d1dc82" d="M40.47,39.097l-1.617-0.626l1.617-0.626l1.617,0.626L40.47,39.097z"/><path fill="#d1dc82" d="M44.656,35.494l-1.617-0.626l1.617-0.626l1.617,0.626L44.656,35.494z"/><path fill="#d1dc82" d="M47.849,35.515l-1.617-0.626l1.617-0.626l1.617,0.626L47.849,35.515z"/><path fill="#d1dc82" d="M46.274,36.13l-1.617-0.626l1.617-0.626l1.617,0.626L46.274,36.13z"/><path fill="#d1dc82" d="M50.136,43.822l-1.617-0.626l1.617-0.626l1.617,0.626L50.136,43.822z"/><path fill="#d1dc82" d="M53.329,43.843l-1.617-0.626l1.617-0.626l1.617,0.626L53.329,43.843z"/><path fill="#d1dc82" d="M65.401,38.892l-1.617-0.626l1.617-0.626l1.617,0.626L65.401,38.892z"/><path fill="#d1dc82" d="M50.163,42.576l-1.617-0.626l1.617-0.626l1.617,0.626L50.163,42.576z"/><path fill="#d1dc82" d="M55.261,33.962l-1.617-0.626l1.617-0.626l1.617,0.626L55.261,33.962z"/><path fill="#d1dc82" d="M51.571,32.311l-1.617-0.626l1.617-0.626l1.617,0.626L51.571,32.311z"/><path fill="#d1dc82" d="M53.685,34.577l-1.617-0.626l1.617-0.626l1.617,0.626L53.685,34.577z"/><path fill="#d1dc82" d="M55.304,35.192l-1.617-0.626l1.617-0.626l1.617,0.626L55.304,35.192z"/><path fill="#d1dc82" d="M45.465,38.428l-1.617-0.626l1.617-0.626l1.617,0.626L45.465,38.428z"/><path fill="#d1dc82" d="M48.54,38.46l-1.617-0.626l1.617-0.626l1.617,0.626L48.54,38.46z"/><path fill="#d1dc82" d="M50.126,37.845l-1.617-0.626l1.617-0.626l1.617,0.626L50.126,37.845z"/><path fill="#d1dc82" d="M53.491,39.809l-1.617-0.626l1.617-0.626l1.617,0.626L53.491,39.809z"/><path fill="#d1dc82" d="M51.916,40.413l-1.617-0.626l1.617-0.626l1.617,0.626L51.916,40.413z"/><path fill="#d1dc82" d="M55.109,40.402l-1.617-0.626l1.617-0.626l1.617,0.626L55.109,40.402z"/><path fill="#d1dc82" d="M59.802,37.489l-1.617-0.626l1.617-0.626l1.617,0.626L59.802,37.489z"/><path fill="#d1dc82" d="M56.728,41.017l-1.617-0.626l1.617-0.626l1.617,0.626L56.728,41.017z"/><path fill="#d1dc82" d="M59.802,38.719l-1.617-0.626l1.617-0.626l1.617,0.626L59.802,38.719z"/><polyline fill="none" stroke="#472b29" stroke-linecap="round" stroke-linejoin="round" stroke-miterlimit="10" stroke-width=".5" points="56.701,49.28 56.717,46.961 53.168,48.385"/><polyline fill="none" stroke="#472b29" stroke-linecap="round" stroke-linejoin="round" stroke-miterlimit="10" stroke-width=".5" points="58.512,48.572 59.61,48.143 59.603,45.814 61.241,45.152 61.253,47.471 62.85,46.817 62.832,44.54 64.436,43.911 64.488,48.455 61.338,49.704 61.351,52.023 59.707,52.695"/><polyline fill="none" stroke="#472b29" stroke-linecap="round" stroke-linejoin="round" stroke-miterlimit="10" stroke-width=".5" points="72.111,45.408 67.645,47.198 67.645,44.998 66.057,45.527 66.017,43.284 64.436,43.911"/><polyline fill="none" stroke="#472b29" stroke-linecap="round" stroke-linejoin="round" stroke-miterlimit="10" stroke-width=".5" points="70.469,41.324 70.516,43.573 68.933,44.214"/><polyline fill="none" stroke="#472b29" stroke-linecap="round" stroke-linejoin="round" stroke-miterlimit="10" stroke-width=".5" points="66.111,48.011 66.13,50.141 67.658,49.516 67.693,51.659 66.052,52.316 66.053,54.637"/><polyline fill="none" stroke="#472b29" stroke-linecap="round" stroke-linejoin="round" stroke-miterlimit="10" stroke-width=".5" points="63.104,51.29 63.105,53.68 61.424,54.388"/><line x1="69.317" x2="69.283" y1="51.005" y2="48.852" fill="none" stroke="#472b29" stroke-linecap="round" stroke-linejoin="round" stroke-miterlimit="10" stroke-width=".5"/><line x1="70.622" x2="72.537" y1="48.32" y2="47.522" fill="none" stroke="#472b29" stroke-linecap="round" stroke-linejoin="round" stroke-miterlimit="10" stroke-width=".5"/><polyline fill="none" stroke="#472b29" stroke-linecap="round" stroke-linejoin="round" stroke-miterlimit="10" stroke-width=".5" points="68.811,53.881 68.853,56.205 70.458,55.529 70.506,57.861"/><polyline fill="none" stroke="#472b29" stroke-linecap="round" stroke-linejoin="round" stroke-miterlimit="10" stroke-width=".5" points="53.9,55.798 53.894,58.162 55.576,57.481 55.558,59.882 57.019,59.227"/><polyline fill="none" stroke="#472b29" stroke-linecap="round" stroke-linejoin="round" stroke-miterlimit="10" stroke-width=".5" points="57.213,56.759 58.943,56.091 58.929,58.421 60.595,57.727 60.601,60.107 58.93,60.811"/><polyline fill="none" stroke="#472b29" stroke-linecap="round" stroke-linejoin="round" stroke-miterlimit="10" stroke-width=".5" points="51.877,68.346 53.567,67.613 53.56,65.179 55.234,64.46 55.221,62.054"/><polyline fill="none" stroke="#472b29" stroke-linecap="round" stroke-linejoin="round" stroke-miterlimit="10" stroke-width=".5" points="53.724,72.373 57.036,70.936 56.955,68.598 58.607,67.902 58.588,65.541"/><polyline fill="none" stroke="#472b29" stroke-linecap="round" stroke-linejoin="round" stroke-miterlimit="10" stroke-width=".5" points="59.71,72.317 59.678,69.886 60.59,69.486"/><polyline fill="none" stroke="#472b29" stroke-linecap="round" stroke-linejoin="round" stroke-miterlimit="10" stroke-width=".5" points="61.927,68.839 62.963,68.446 62.988,66.083 64.706,65.352 64.724,62.915"/><polyline fill="none" stroke="#472b29" stroke-linecap="round" stroke-linejoin="round" stroke-miterlimit="10" stroke-width=".5" points="66.348,59.853 67.977,59.16 68.014,61.528 69.64,60.829 69.683,63.205"/><polyline fill="none" stroke="#472b29" stroke-linecap="round" stroke-linejoin="round" stroke-miterlimit="10" stroke-width=".5" points="35.66,38.45 37.277,39.075 38.853,38.471 40.47,39.097"/><polyline fill="none" stroke="#472b29" stroke-linecap="round" stroke-linejoin="round" stroke-miterlimit="10" stroke-width=".5" points="45.465,37.177 47.082,37.802 50.126,36.594 51.743,37.22"/><polyline fill="none" stroke="#472b29" stroke-linecap="round" stroke-linejoin="round" stroke-miterlimit="10" stroke-width=".5" points="50.163,41.325 48.546,41.95 50.163,42.576"/><polyline fill="none" stroke="#472b29" stroke-linecap="round" stroke-linejoin="round" stroke-miterlimit="10" stroke-width=".5" points="51.712,43.218 53.329,43.843 54.947,43.218"/><polyline fill="none" stroke="#472b29" stroke-linecap="round" stroke-linejoin="round" stroke-miterlimit="10" stroke-width=".5" points="50.299,39.787 51.916,40.413 53.492,39.776 54.753,40.262"/><polyline fill="none" stroke="#472b29" stroke-linecap="round" stroke-linejoin="round" stroke-miterlimit="10" stroke-width=".5" points="49.466,34.89 47.849,34.264 46.274,34.879 44.656,34.242 43.039,34.868"/><polyline fill="none" stroke="#472b29" stroke-linecap="round" stroke-linejoin="round" stroke-miterlimit="10" stroke-width=".5" points="55.304,35.192 52.068,33.951 55.261,32.71"/><polyline fill="none" stroke="#472b29" stroke-linecap="round" stroke-linejoin="round" stroke-miterlimit="10" stroke-width=".5" points="49.954,31.686 51.571,31.06 53.188,31.686"/><polyline fill="none" stroke="#472b29" stroke-linecap="round" stroke-linejoin="round" stroke-miterlimit="10" stroke-width=".5" points="58.185,38.094 59.802,38.719 61.419,38.094"/><polyline fill="none" stroke="#472b29" stroke-linecap="round" stroke-linejoin="round" stroke-miterlimit="10" stroke-width=".5" points="56.064,40.764 56.728,41.017 58.345,40.391"/><polyline fill="none" stroke="#472b29" stroke-linecap="round" stroke-linejoin="round" stroke-miterlimit="10" stroke-width=".5" points="65.401,37.64 67.018,38.266 65.401,38.892"/><g><path fill="#fdfcef" d="M35,74.5c0,0,1.567,0,3.5,0S42,72.933,42,71c0-1.781-1.335-3.234-3.055-3.455 C38.973,67.366,39,67.187,39,67c0-1.933-1.567-3.5-3.5-3.5c-1.032,0-1.95,0.455-2.59,1.165C32.526,62.857,30.923,61.5,29,61.5 c-2.209,0-4,1.791-4,4c0,0.191,0.03,0.374,0.056,0.558C24.628,65.714,24.092,65.5,23.5,65.5c-1.228,0-2.245,0.887-2.455,2.055 C20.866,67.527,20.687,67.5,20.5,67.5c-1.933,0-3.5,1.567-3.5,3.5s1.567,3.5,3.5,3.5s7.5,0,7.5,0V75h7V74.5z"/><path fill="#472b29" d="M38.5,75H35c-0.276,0-0.5-0.224-0.5-0.5S34.724,74,35,74h3.5c1.654,0,3-1.346,3-3 c0-1.496-1.125-2.768-2.618-2.959c-0.134-0.018-0.255-0.088-0.336-0.196s-0.115-0.244-0.094-0.377 C38.475,67.314,38.5,67.16,38.5,67c0-1.654-1.346-3-3-3c-0.85,0-1.638,0.355-2.219,1c-0.125,0.139-0.321,0.198-0.5,0.148 c-0.182-0.049-0.321-0.195-0.36-0.379C32.08,63.165,30.641,62,29,62c-1.93,0-3.5,1.57-3.5,3.5c0,0.143,0.021,0.28,0.041,0.418 c0.029,0.203-0.063,0.438-0.242,0.54s-0.396,0.118-0.556-0.01C24.378,66.155,23.949,66,23.5,66c-0.966,0-1.792,0.691-1.963,1.644 c-0.048,0.267-0.296,0.446-0.569,0.405C20.814,68.025,20.66,68,20.5,68c-1.654,0-3,1.346-3,3s1.346,3,3,3H28 c0.276,0,0.5,0.224,0.5,0.5S28.276,75,28,75h-7.5c-2.206,0-4-1.794-4-4s1.794-4,4-4c0.059,0,0.116,0.002,0.174,0.006 C21.088,65.82,22.211,65,23.5,65c0.349,0,0.689,0.061,1.011,0.18C24.676,62.847,26.626,61,29,61c1.831,0,3.466,1.127,4.153,2.774 C33.833,63.276,34.655,63,35.5,63c2.206,0,4,1.794,4,4c0,0.048-0.001,0.095-0.004,0.142C41.239,67.59,42.5,69.169,42.5,71 C42.5,73.206,40.706,75,38.5,75z"/><path fill="#472b29" d="M36.75,70c-0.138,0-0.25-0.112-0.25-0.25c0-1.223,0.995-2.218,2.218-2.218 c0.034,0.009,0.737-0.001,1.244,0.136c0.133,0.036,0.212,0.173,0.176,0.306c-0.036,0.134-0.173,0.213-0.306,0.176 c-0.444-0.12-1.1-0.12-1.113-0.118c-0.948,0-1.719,0.771-1.719,1.718C37,69.888,36.888,70,36.75,70z"/><path fill="#472b29" d="M33,74c-0.159,0-0.841,0-1,0c-0.276,0-0.5,0.224-0.5,0.5S31.724,75,32,75c0.159,0,0.841,0,1,0 c0.276,0,0.5-0.224,0.5-0.5S33.276,74,33,74z"/><circle cx="30" cy="74.5" r=".5" fill="#472b29"/></g></svg>